# Blender 4.0.1
# www.blender.org
mtllib dorojki v2.mtl
o Plane
v -11.273717 -0.760941 1.323081
v -8.918561 -0.760941 -0.109933
v -11.522252 -0.760941 0.534132
v -9.687301 -0.760941 -0.738486
v -5.961120 -0.760941 -1.678657
v -6.209655 -0.760941 -2.467606
v -2.483429 -0.760941 -2.518530
v -2.881322 -0.760941 -3.917042
v -1.459846 -0.760941 -2.461336
v -1.911827 -0.760941 -4.144222
v 2.825994 -0.760942 -6.433456
v 2.825994 -0.760942 -6.433456
v 3.983983 -0.760941 -2.693151
v 3.983983 -0.760941 -2.693151
v -13.639567 -0.760941 1.712839
v -13.888103 -0.760941 0.923890
v -12.784788 -0.760941 1.572020
v -13.033323 -0.760941 0.783071
v -12.907463 -0.760941 3.870761
v -12.052684 -0.760941 3.729942
v -9.580215 -0.760940 7.683152
v -8.860919 -0.760940 7.200359
v -9.585059 -0.760941 6.412999
v -10.335094 -0.760940 6.818205
v -6.490161 -0.760941 4.680334
v -7.214301 -0.760941 3.892974
v -3.101709 -0.760941 1.977075
v -3.825850 -0.760941 1.189715
v -1.913830 -0.760941 1.357977
v -1.959579 -0.760941 -0.559285
v 2.691401 -0.760941 0.333492
v 2.691099 -0.760941 -0.736234
v 5.069581 -0.760941 0.022896
v 4.674619 -0.760941 -0.727307
v 7.334636 -0.760941 -1.553929
v 6.684211 -0.760941 -2.163955
v 9.324954 -0.760941 -2.921146
v 7.109998 -0.760941 -3.122327
v 8.187333 -0.760942 -7.261492
v 7.349572 -0.760942 -7.131276
v 7.084241 -0.760942 -9.796844
v 6.310231 -0.760942 -9.450856
v 6.639636 -0.760942 -8.715694
v 7.433854 -0.760942 -8.993297
v 3.574331 -0.760942 -8.299426
v 3.539862 -0.760942 -7.352245
v 2.803840 -0.760942 -7.994035
v 3.019911 -0.760942 -7.197688
v 4.472642 -0.760941 -2.619632
v 3.686166 -0.760942 -6.141963
v 5.145276 -0.760941 -2.715127
v 5.108439 -0.760942 -6.194952
v 4.673810 -0.760942 -6.185141
v 4.721608 -0.760941 -2.688574
v 4.528531 -0.760942 -7.787116
v 4.446944 -0.760942 -8.666673
v 4.902604 -0.760942 -7.951653
v 4.777104 -0.760942 -8.805625
v -11.117277 -0.760941 4.747013
v -11.932350 -0.760941 4.988054
v -11.243448 -0.760941 5.777404
v -10.456427 -0.760941 5.465558
v -8.110232 -0.760941 4.846493
v -7.404819 -0.760941 5.652580
v -9.412588 -0.760941 4.243602
v -9.094572 -0.760941 4.832094
v 1.567465 -0.760941 -2.590248
v 0.722874 -0.760941 -5.417264
v 3.238635 -0.760941 -2.661412
v 2.177308 -0.760942 -6.120022
v 0.228306 -0.760942 -6.750824
v 1.713035 -0.760942 -7.468220
v -6.736035 -0.760941 -2.205885
v -6.487500 -0.760941 -1.416936
v -7.887109 -0.760941 -1.633559
v -7.638574 -0.760941 -0.844610
v -6.107125 -0.760941 0.200390
v -7.342683 -0.760941 0.555252
v -6.207027 -0.760941 -0.224385
v -7.420396 -0.760941 0.187591
v -4.369642 -0.760941 0.023521
v -4.469543 -0.760941 -0.401255
v -5.079195 -0.760941 -0.346222
v -4.910254 -0.760941 0.078553
v -5.451767 -0.760941 -0.294903
v -5.414391 -0.760941 0.129872
v -5.821520 -0.760941 -2.636632
v -5.482271 -0.760941 -1.776599
v -5.085580 -0.760941 -1.906231
v -5.307802 -0.760941 -2.860348
v -10.669775 -0.760941 0.904222
v -10.918310 -0.760941 0.115272
v -10.243381 -0.760941 0.608499
v -10.491916 -0.760941 -0.180450
v -9.457929 -0.760941 1.225720
v -8.718950 -0.760941 0.594789
v -1.417349 -0.760941 -4.383145
v -0.891683 -0.760941 -2.485530
v -0.242599 -0.760941 -2.513170
v -0.852444 -0.760941 -4.656097
v -2.372317 -0.760942 -6.445331
v -1.701901 -0.760942 -6.553802
v -2.992002 -0.760942 -8.466104
v -2.427097 -0.760942 -8.739056
v 11.242742 -0.760942 -13.356997
v 10.482528 -0.760942 -14.996415
v -12.520317 -0.760941 -1.849526
v -13.329021 -0.760941 -3.819673
v -6.452362 -0.760941 -2.836161
v -7.239427 -0.760941 -2.421624
v -6.731025 -0.760941 -3.357531
v -7.518090 -0.760941 -2.942994
v -9.306929 -0.760941 -2.089026
v -9.585591 -0.760941 -2.610396
v -13.132357 -0.760941 -2.246848
v -13.652666 -0.760941 -3.368908
v -20.159985 -0.760941 1.165293
v -20.680294 -0.760941 0.043233
v -13.943086 -0.760941 -3.978786
v -20.970715 -0.760941 -0.566645
v -12.956910 -0.760941 -1.580153
v -20.002083 -0.760941 1.603908
v -15.397876 -0.760941 -1.146866
v -15.918185 -0.760941 -2.268925
v -16.208603 -0.760941 -2.878803
v -15.228084 -0.760941 -0.553698
v -14.085509 -0.760941 -1.784062
v -13.912443 -0.760941 -1.148301
v -14.605819 -0.760941 -2.906121
v -14.896237 -0.760941 -3.515999
v -17.094872 -0.760941 -4.755496
v -15.819364 -0.760941 -5.306103
v -18.670490 -2.235057 -8.550594
v -17.394983 -2.235057 -9.101200
v -12.852853 -0.760941 -2.342418
v -13.248271 -0.760941 -3.523245
v -11.275152 0.675287 1.319757
v -11.523687 0.675287 0.530807
v -5.962555 0.675287 -1.681982
v -6.211090 0.675287 -2.470931
v -1.461281 0.675287 -2.464660
v -1.913262 0.675287 -4.147546
v -13.133792 0.675287 -2.250173
v -6.108560 0.675287 0.197065
v -5.415826 0.675287 0.126547
v -12.786223 0.675287 1.568696
v -13.034759 0.675287 0.779746
v -12.908898 0.675287 3.867436
v -12.054119 0.675287 3.726618
v -9.581651 0.675287 7.679828
v -8.862354 0.675287 7.197034
v -9.586494 0.675287 6.409675
v -10.336530 0.675287 6.814880
v -6.491596 0.675287 4.677010
v -7.215736 0.675287 3.889649
v -3.103144 0.675287 1.973750
v -1.915265 0.675287 1.354653
v -1.961014 0.675287 -0.562610
v 2.689966 0.675287 0.330167
v 5.068146 0.675287 0.019571
v 4.673184 0.675287 -0.730632
v 7.333201 0.675287 -1.557253
v 9.323519 0.675287 -2.924470
v 7.108563 0.675287 -3.125652
v 8.185898 0.675286 -7.264816
v 7.082806 0.675286 -9.800168
v 6.308796 0.675286 -9.454181
v 6.638201 0.675286 -8.719019
v 7.432419 0.675286 -8.996621
v 3.572896 0.675286 -8.302751
v 3.538427 0.675286 -7.355569
v 2.802405 0.675286 -7.997359
v 3.982548 0.675287 -2.696476
v 4.471207 0.675287 -2.622957
v 3.684731 0.675286 -6.145288
v 2.824559 0.675286 -6.436780
v 3.018476 0.675286 -7.201013
v 4.672375 0.675286 -6.188466
v 4.720173 0.675287 -2.691899
v 4.527096 0.675286 -7.790441
v 4.901169 0.675286 -7.954978
v 4.775669 0.675286 -8.808949
v -11.244884 0.675287 5.774079
v -10.457862 0.675287 5.462234
v -8.111668 0.675287 4.843168
v -7.406254 0.675287 5.649255
v -9.414023 0.675287 4.240277
v -9.096007 0.675287 4.828770
v 3.237200 0.675287 -2.664737
v 2.175873 0.675286 -6.123346
v -6.737470 0.675287 -2.209209
v -6.488935 0.675287 -1.420261
v -7.888544 0.675287 -1.636883
v -7.344118 0.675287 0.551927
v -6.208462 0.675287 -0.227710
v -4.371077 0.675287 0.020196
v -4.470978 0.675287 -0.404580
v -5.080630 0.675287 -0.349547
v -4.911689 0.675287 0.075228
v -5.453202 0.675287 -0.298228
v -5.483706 0.675287 -1.779924
v -5.087015 0.675287 -1.909556
v -5.309237 0.675287 -2.863672
v -10.671210 0.675287 0.900897
v -10.919745 0.675287 0.111947
v -10.493351 0.675287 -0.183775
v -9.459364 0.675287 1.222396
v -8.720386 0.675287 0.591464
v -0.893118 0.675287 -2.488854
v -1.418784 0.675287 -4.386469
v -0.244034 0.675287 -2.516495
v -0.853879 0.675287 -4.659421
v -2.373752 0.675286 -6.448656
v -1.703336 0.675286 -6.557127
v -2.993437 0.675286 -8.469428
v -2.428532 0.675286 -8.742380
v 11.241306 0.675286 -13.360321
v 10.481092 0.675286 -14.999740
v -13.330457 0.675287 -3.822998
v -6.453797 0.675287 -2.839485
v -7.240862 0.675287 -2.424948
v -6.732460 0.675287 -3.360856
v -9.308364 0.675287 -2.092350
v -9.587027 0.675287 -2.613720
v -20.161419 0.675287 1.161968
v -20.681728 0.675287 0.039908
v -20.003517 0.675287 1.600583
v -12.958345 0.675287 -1.583477
v -13.913878 0.675287 -1.151626
v -14.897673 0.675287 -3.519324
v -16.210037 0.675287 -2.882128
v -17.096306 0.675287 -4.758821
v -18.671925 -0.798829 -8.553919
v -17.396418 -0.798829 -9.104525
v -7.421831 0.675287 0.184266
v -12.854288 0.675287 -2.345742
v -13.249706 0.675287 -3.526570
v -11.118712 0.675287 4.743689
v -11.933785 0.675287 4.984729
v -8.919996 0.675287 -0.113258
v -9.688736 0.675287 -0.741811
v -3.827285 0.675287 1.186391
v 2.689664 0.675287 -0.739559
v 6.682775 0.675287 -2.167279
v 7.348137 0.675286 -7.134601
v -20.972149 0.675287 -0.569970
v 3.982548 0.675287 -2.696476
v 1.711600 0.675286 -7.471545
v -7.640009 0.675287 -0.847935
v -5.822955 0.675287 -2.639956
v -7.519525 0.675287 -2.946319
v -15.229519 0.675287 -0.557023
v -15.820799 0.675286 -5.309428
v 5.107004 0.675286 -6.198277
v -2.484864 0.675287 -2.521854
v -2.882757 0.675287 -3.920367
v -13.641003 0.675287 1.709514
v -13.889538 0.675287 0.920565
v -12.521752 0.675287 -1.852851
v 5.143841 0.675287 -2.718451
v 4.445509 0.675286 -8.669997
v 1.566030 0.675287 -2.593573
v 0.721439 0.675286 -5.420588
v 0.226871 0.675286 -6.754148
v -13.654101 0.675287 -3.372232
v -13.944521 0.675287 -3.982111
v 2.824559 0.675286 -6.436780
vn -0.0000 -1.0000 -0.0000
vn 0.1338 -0.9413 0.3100
vn 0.1588 0.0024 0.9873
vn -0.9029 0.0001 0.4299
vn -0.9648 -0.0004 0.2628
vn 0.9170 -0.0000 -0.3990
vn -0.3879 -0.0025 -0.9217
vn 0.4118 0.0025 0.9113
vn 0.7360 -0.0008 -0.6769
vn 0.2290 0.0025 0.9734
vn 0.8888 -0.0002 -0.4583
vn -0.7534 0.0008 0.6575
vn -0.6236 -0.0024 -0.7817
vn 0.7283 0.0023 0.6852
vn 0.4452 0.0025 0.8954
vn -0.4351 -0.0025 -0.9004
vn -0.0380 -0.0024 -0.9993
vn 0.9932 0.0007 -0.1164
vn -0.9376 -0.0001 0.3477
vn -0.2564 0.0020 0.9666
vn -0.9998 -0.0010 0.0206
vn -0.5816 -0.0025 -0.8135
vn -0.4452 -0.0025 -0.8954
vn 0.0425 0.0024 0.9991
vn 0.2760 0.0025 0.9611
vn -0.9982 -0.0011 -0.0597
vn -0.0558 0.0023 0.9984
vn -0.9784 -0.0005 0.2068
vn -0.4368 -0.0025 -0.8996
vn 0.9734 0.0004 -0.2289
vn -0.9553 -0.0003 0.2957
vn -0.9538 -0.0003 0.3005
vn 0.1013 0.0024 0.9949
vn -0.4660 -0.0025 -0.8848
vn -0.1626 -0.0024 -0.9867
vn 0.9928 0.0007 -0.1200
vn -0.3993 -0.0025 -0.9168
vn -0.9470 -0.0002 0.3213
vn -0.0437 -0.0024 -0.9990
vn 0.2004 0.0025 0.9797
vn -0.5699 -0.0025 -0.8217
vn 0.4026 0.0025 0.9154
vn 0.5699 0.0025 0.8217
vn -0.0146 0.0023 0.9999
vn 0.4622 0.0025 0.8868
vn -0.2992 -0.0025 -0.9542
vn 0.9671 0.0004 -0.2545
vn 0.1295 0.0024 0.9916
vn 0.9127 -0.0000 -0.4086
vn -0.1575 -0.0024 -0.9875
vn 0.5662 0.0025 0.8243
vn -0.4362 -0.0025 -0.8999
vn 0.4218 0.0025 0.9067
vn 0.4125 0.0025 0.9109
vn -0.1588 -0.0024 -0.9873
vn 0.1626 0.0024 0.9867
vn -0.9074 0.0001 0.4202
vn 0.9029 -0.0001 -0.4299
vn 0.9455 0.0002 -0.3256
vn 0.4978 0.0025 0.8673
vn -0.9651 -0.0004 0.2619
vn 0.9470 0.0002 -0.3213
vn -0.9236 -0.0000 0.3835
vn 0.9236 -0.0000 -0.3835
vn 0.5573 0.0025 0.8303
vn 0.3235 0.0025 0.9462
vn 0.9072 -0.0001 -0.4207
vn 0.9999 0.0010 -0.0106
vn -0.3566 -0.0025 -0.9343
vn -0.0930 -0.0024 -0.9957
vn 1.0000 0.0010 -0.0041
vn 0.2669 0.0025 0.9637
vn 0.0626 0.0024 0.9980
vn -0.0899 -0.0024 -0.9959
vn -0.9959 -0.0008 0.0903
vn 0.6236 0.0024 0.7817
vn -0.3939 0.0017 0.9191
vn 0.8819 -0.0002 -0.4714
vn -0.8290 0.0005 0.5593
vn 0.2172 0.0025 0.9761
vn -0.2281 -0.0025 -0.9736
vn -0.8819 0.0002 0.4714
vn 0.9553 0.0003 -0.2957
vn -0.9072 0.0001 0.4207
vn 0.5713 0.0025 0.8207
vn 0.3022 0.0025 0.9533
vn -0.9409 -0.0002 0.3387
vn 0.9621 0.0003 -0.2725
vn -0.7281 -0.0023 -0.6855
vn 0.9673 0.0004 -0.2535
vn -0.4081 -0.0025 -0.9129
vn -0.6838 -0.0024 -0.7297
vn -0.2832 -0.0025 -0.9591
vn -0.9042 0.0001 0.4270
vn 0.0045 -0.0023 -1.0000
vn -0.3963 -0.0025 -0.9181
vn 0.4652 0.0025 0.8852
vn -0.4100 -0.0025 -0.9121
vn -0.3685 -0.0025 -0.9296
vn 0.8352 -0.0004 -0.5500
vn -0.9139 -0.0019 -0.4060
vn -0.1488 0.0021 0.9889
vn -0.9126 -0.0000 0.4089
vn -0.9693 -0.0015 -0.2459
vt 0.561506 0.000000
vt 1.000000 1.000000
vt 1.000000 0.000000
vt 0.561506 1.000000
vt 0.000000 0.000000
vt 0.000000 1.000000
vt 0.329132 1.000000
vt 0.329132 0.000000
s 0
usemtl Material.002
f 93/1/1 4/2/1 2/3/1
f 93/1/1 94/4/1 4/2/1
f 73/2/1 5/3/1 74/3/1
f 73/2/1 6/2/1 5/3/1
f 90/2/1 7/3/1 89/3/1
f 90/2/1 8/2/1 7/3/1
f 8/2/1 9/3/1 7/3/1
f 8/2/1 10/2/1 9/3/1
f 70/2/1 14/3/1 69/3/1
f 70/2/1 12/2/1 14/3/1
f 17/5/1 16/6/1 18/6/1
f 17/5/1 15/5/1 16/6/1
f 1/5/1 18/6/1 3/6/1
f 1/5/1 17/5/1 18/6/1
f 17/5/1 19/5/1 15/5/1
f 17/5/1 20/5/1 19/5/1
f 23/5/1 21/5/1 24/5/1
f 23/5/1 22/5/1 21/5/1
f 62/5/1 24/5/1 61/5/1
f 62/5/1 23/5/1 24/5/1
f 63/5/1 25/5/1 64/5/1
f 63/5/1 26/5/1 25/5/1
f 26/5/1 27/5/1 25/5/1
f 26/5/1 28/5/1 27/5/1
f 28/5/1 29/5/1 27/5/1
f 28/5/1 30/5/1 29/5/1
f 30/5/1 31/5/1 29/5/1
f 30/5/1 32/5/1 31/5/1
f 32/5/1 33/5/1 31/5/1
f 32/5/1 34/5/1 33/5/1
f 34/5/1 35/5/1 33/5/1
f 34/5/1 36/5/1 35/5/1
f 36/5/1 37/5/1 35/5/1
f 36/5/1 38/5/1 37/5/1
f 38/5/1 39/5/1 37/5/1
f 38/5/1 40/5/1 39/5/1
f 43/5/1 41/5/1 44/5/1
f 43/5/1 42/5/1 41/5/1
f 40/5/1 44/5/1 39/5/1
f 40/5/1 43/5/1 44/5/1
f 55/5/1 45/5/1 56/5/1
f 55/5/1 46/5/1 45/5/1
f 46/5/1 47/5/1 45/5/1
f 46/5/1 48/5/1 47/5/1
f 50/5/1 13/5/1 11/5/1
f 50/5/1 49/5/1 13/5/1
f 46/5/1 11/5/1 48/5/1
f 46/5/1 50/5/1 11/5/1
f 53/5/1 51/5/1 54/5/1
f 53/5/1 52/5/1 51/5/1
f 50/5/1 54/5/1 49/5/1
f 50/5/1 53/5/1 54/5/1
f 57/5/1 56/5/1 58/5/1
f 57/5/1 55/5/1 56/5/1
f 43/5/1 58/5/1 42/5/1
f 43/5/1 57/5/1 58/5/1
f 52/5/1 55/5/1 57/5/1
f 52/5/1 53/5/1 55/5/1
f 20/5/1 60/5/1 19/5/1
f 20/5/1 59/5/1 60/5/1
f 59/5/1 61/5/1 60/5/1
f 59/5/1 62/5/1 61/5/1
f 23/5/1 64/5/1 22/5/1
f 23/5/1 63/5/1 64/5/1
f 59/5/1 66/5/1 62/5/1
f 59/5/1 65/5/1 66/5/1
f 26/5/1 66/5/1 65/5/1
f 26/5/1 63/5/1 66/5/1
f 100/2/1 67/3/1 99/3/1
f 100/2/1 68/2/1 67/3/1
f 68/2/1 69/3/1 67/3/1
f 68/2/1 70/2/1 69/3/1
f 68/2/1 72/2/1 70/2/1
f 68/2/1 71/2/1 72/2/1
f 75/2/1 74/3/1 76/3/1
f 75/2/1 73/2/1 74/3/1
f 4/2/1 76/3/1 2/3/1
f 4/2/1 75/2/1 76/3/1
f 79/3/1 78/3/1 80/3/1
f 79/3/1 77/3/1 78/3/1
f 74/3/1 80/3/1 76/3/1
f 74/3/1 79/3/1 80/3/1
f 83/3/1 81/3/1 84/3/1
f 83/3/1 82/3/1 81/3/1
f 85/3/1 84/3/1 86/3/1
f 85/3/1 83/3/1 84/3/1
f 79/3/1 86/3/1 77/3/1
f 79/3/1 85/3/1 86/3/1
f 6/2/1 88/3/1 5/3/1
f 6/2/1 87/2/1 88/3/1
f 87/2/1 89/3/1 88/3/1
f 87/2/1 90/2/1 89/3/1
f 83/3/1 88/3/1 89/3/1
f 83/3/1 85/3/1 88/3/1
f 1/5/1 92/7/1 91/8/1
f 1/5/1 3/6/1 92/7/1
f 91/8/1 94/4/1 93/1/1
f 91/8/1 92/7/1 94/4/1
f 93/1/1 95/8/1 91/8/1
f 93/1/1 96/1/1 95/8/1
f 80/3/1 95/8/1 96/1/1
f 80/3/1 78/3/1 95/8/1
f 93/1/1 2/3/1 96/1/1
f 10/2/1 98/3/1 9/3/1
f 10/2/1 97/2/1 98/3/1
f 97/2/1 99/3/1 98/3/1
f 97/2/1 100/2/1 99/3/1
f 97/2/1 102/2/1 100/2/1
f 97/2/1 101/2/1 102/2/1
f 101/2/1 104/2/1 102/2/1
f 101/2/1 103/2/1 104/2/1
f 104/2/1 105/2/1 102/2/1
f 104/2/1 106/2/1 105/2/1
f 101/2/1 108/2/1 103/2/1
f 101/2/1 107/2/1 108/2/1
f 73/2/1 109/2/1 6/2/1
f 73/2/1 110/2/1 109/2/1
f 110/2/1 111/2/1 109/2/1
f 110/2/1 112/2/1 111/2/1
f 110/2/1 114/2/1 112/2/1
f 110/2/1 113/2/1 114/2/1
f 135/2/1 115/2/1 116/2/1 136/2/1
f 123/2/1 117/2/1 118/2/1 124/2/1
f 129/2/1 130/2/1 119/2/1 116/2/1
f 123/2/1 126/2/1 122/2/1 117/2/1
f 127/2/1 128/2/1 126/2/1 123/2/1
f 118/2/1 120/2/1 125/2/1 124/2/1
f 127/2/1 123/2/1 124/2/1 129/2/1
f 115/2/1 127/2/1 129/2/1 116/2/1
f 115/2/1 121/2/1 128/2/1 127/2/1
f 124/2/1 125/2/1 130/2/1 129/2/1
f 125/2/1 131/2/1 132/2/1 130/2/1
f 131/2/2 133/2/2 134/2/2 132/2/2
f 107/2/1 135/2/1 136/2/1 108/2/1
f 113/2/3 110/2/3 221/2/3 223/2/3
f 120/2/4 118/2/4 226/2/4 246/2/4
f 108/2/5 136/2/5 237/2/5 219/2/5
f 39/5/6 44/5/6 169/5/6 165/5/6
f 58/5/7 56/5/7 261/5/7 182/5/7
f 122/2/8 126/2/8 252/2/8 227/2/8
f 59/5/9 20/5/9 149/5/9 238/5/9
f 126/2/8 128/2/8 229/2/8 252/2/8
f 89/3/10 7/3/10 255/3/10 202/3/10
f 130/2/11 132/2/11 253/2/11 230/2/11
f 61/5/12 24/5/12 153/5/12 183/5/12
f 28/5/13 26/5/13 155/5/13 242/5/13
f 64/5/14 25/5/14 154/5/14 186/5/14
f 74/3/15 5/3/15 139/3/15 192/3/15
f 12/2/16 70/2/16 190/2/16 267/2/16
f 32/5/17 30/5/17 158/5/17 243/5/17
f 52/5/18 57/5/18 181/5/18 254/5/18
f 71/2/19 68/2/19 263/2/19 264/2/19
f 91/8/20 95/8/20 207/8/20 204/8/20
f 88/3/21 85/3/21 200/3/21 201/3/21
f 36/5/22 34/5/22 161/5/22 244/5/22
f 73/2/23 75/2/23 193/2/23 191/2/23
f 60/5/12 61/5/12 183/5/12 239/5/12
f 75/2/23 4/2/23 241/2/23 193/2/23
f 99/3/24 67/3/24 262/3/24 211/3/24
f 78/3/25 77/3/25 144/3/25 194/3/25
f 40/5/26 38/5/26 164/5/26 245/5/26
f 7/3/27 9/3/27 141/3/27 255/3/27
f 76/3/28 80/3/28 235/3/28 249/3/28
f 125/2/29 120/2/29 246/2/29 231/2/29
f 104/2/16 103/2/16 215/2/16 216/2/16
f 81/3/30 82/3/30 197/3/30 196/3/30
f 11/5/31 13/5/31 173/5/31 176/5/31
f 16/6/32 15/5/32 257/5/32 258/6/32
f 86/3/33 84/3/33 199/3/33 145/3/33
f 84/3/33 81/3/33 196/3/33 199/3/33
f 111/2/34 112/2/34 251/2/34 222/2/34
f 3/6/35 18/6/35 147/6/35 138/6/35
f 50/5/36 46/5/36 171/5/36 175/5/36
f 90/2/37 87/2/37 250/2/37 203/2/37
f 15/5/38 19/5/38 148/5/38 257/5/38
f 8/2/37 90/2/37 203/2/37 256/2/37
f 53/5/39 50/5/39 175/5/39 178/5/39
f 5/3/40 88/3/40 201/3/40 139/3/40
f 4/2/41 94/4/41 206/4/41 241/2/41
f 46/5/42 55/5/42 180/5/42 171/5/42
f 56/5/7 45/5/7 170/5/7 261/5/7
f 1/5/43 91/8/43 204/8/43 137/5/43
f 66/5/44 63/5/44 185/5/44 188/5/44
f 27/5/45 29/5/45 157/5/45 156/5/45
f 80/3/46 96/1/46 208/1/46 235/3/46
f 42/5/7 58/5/7 182/5/7 167/5/7
f 121/2/47 115/2/47 143/2/47 228/2/47
f 68/2/16 100/2/16 212/2/16 263/2/16
f 31/5/48 33/5/48 160/5/48 159/5/48
f 100/2/49 102/2/49 214/2/49 212/2/49
f 22/5/14 64/5/14 186/5/14 151/5/14
f 26/5/50 65/5/50 187/5/50 155/5/50
f 9/3/24 98/3/24 209/3/24 141/3/24
f 35/5/51 37/5/51 163/5/51 162/5/51
f 106/2/52 104/2/52 216/2/52 218/2/52
f 62/5/53 66/5/53 188/5/53 184/5/53
f 77/3/33 86/3/33 145/3/33 144/3/33
f 69/3/24 14/3/24 247/3/24 189/3/24
f 107/2/54 101/2/54 213/2/54 259/2/54
f 112/2/55 114/2/55 224/2/55 251/2/55
f 17/5/56 1/5/56 137/5/56 146/5/56
f 119/2/29 130/2/29 230/2/29 266/2/29
f 101/2/57 97/2/57 210/2/57 213/2/57
f 116/2/58 119/2/58 266/2/58 265/2/58
f 70/2/59 72/2/59 248/2/59 190/2/59
f 2/3/60 76/3/60 249/3/60 240/3/60
f 47/5/61 48/5/61 177/5/61 172/5/61
f 20/5/62 17/5/62 146/5/62 149/5/62
f 133/2/63 131/2/63 232/2/63 233/2/63
f 132/2/64 134/2/64 234/2/64 253/2/64
f 21/5/65 22/5/65 151/5/65 150/5/65
f 115/2/66 135/2/66 236/2/66 143/2/66
f 105/2/67 106/2/67 218/2/67 217/2/67
f 51/5/68 52/5/68 254/5/68 260/5/68
f 136/2/69 116/2/69 265/2/69 237/2/69
f 85/3/70 79/3/70 195/3/70 200/3/70
f 57/5/42 43/5/42 168/5/42 181/5/42
f 83/3/71 89/3/71 202/3/71 198/3/71
f 24/5/12 21/5/12 150/5/12 153/5/12
f 49/5/72 54/5/72 179/5/72 174/5/72
f 54/5/73 51/5/73 260/5/73 179/5/73
f 94/4/41 92/7/41 205/7/41 206/4/41
f 82/3/74 83/3/74 198/3/74 197/3/74
f 55/5/75 53/5/75 178/5/75 180/5/75
f 92/7/41 3/6/41 138/6/41 205/7/41
f 25/5/76 27/5/76 156/5/76 154/5/76
f 87/2/37 6/2/37 140/2/37 250/2/37
f 110/2/77 73/2/77 191/2/77 221/2/77
f 109/2/78 111/2/78 222/2/78 220/2/78
f 135/2/79 107/2/79 259/2/79 236/2/79
f 29/5/80 31/5/80 159/5/80 157/5/80
f 10/2/81 8/2/81 256/2/81 142/2/81
f 114/2/82 113/2/82 223/2/82 224/2/82
f 19/5/12 60/5/12 239/5/12 148/5/12
f 14/3/83 12/2/83 267/2/83 247/3/83
f 118/2/84 117/2/84 225/2/84 226/2/84
f 33/5/85 35/5/85 162/5/85 160/5/85
f 95/8/86 78/3/86 194/3/86 207/8/86
f 117/2/87 122/2/87 227/2/87 225/2/87
f 23/5/9 62/5/9 184/5/9 152/5/9
f 96/1/88 2/3/88 240/3/88 208/1/88
f 18/6/35 16/6/35 258/6/35 147/6/35
f 63/5/89 23/5/89 152/5/89 185/5/89
f 37/5/90 39/5/90 165/5/90 163/5/90
f 97/2/16 10/2/16 142/2/16 210/2/16
f 128/2/8 121/2/8 228/2/8 229/2/8
f 41/5/91 42/5/91 167/5/91 166/5/91
f 30/5/92 28/5/92 242/5/92 158/5/92
f 65/5/93 59/5/93 238/5/93 187/5/93
f 98/3/24 99/3/24 211/3/24 209/3/24
f 131/2/94 125/2/94 231/2/94 232/2/94
f 44/5/6 41/5/6 166/5/6 169/5/6
f 34/5/95 32/5/95 243/5/95 161/5/95
f 134/2/96 133/2/96 233/2/96 234/2/96
f 102/2/97 105/2/97 217/2/97 214/2/97
f 103/2/98 108/2/98 219/2/98 215/2/98
f 67/3/24 69/3/24 189/3/24 262/3/24
f 45/5/99 47/5/99 172/5/99 170/5/99
f 6/2/100 109/2/100 220/2/100 140/2/100
f 38/5/101 36/5/101 244/5/101 164/5/101
f 79/3/30 74/3/30 192/3/30 195/3/30
f 13/5/102 49/5/102 174/5/102 173/5/102
f 43/5/103 40/5/103 245/5/103 168/5/103
f 72/2/16 71/2/16 264/2/16 248/2/16
f 48/5/104 11/5/104 176/5/104 177/5/104
