# Blender 5.0.1
# www.blender.org
mtllib dorojki_1.mtl
o Plane
v -11.273717 -0.760941 1.323081
v -8.918561 -0.760941 -0.109933
v -11.522252 -0.760941 0.534132
v -9.687301 -0.760941 -0.738486
v -5.961120 -0.760941 -1.678657
v -6.209655 -0.760941 -2.467606
v -2.483429 -0.760941 -2.518530
v -2.881322 -0.760941 -3.917042
v -1.459846 -0.760941 -2.461336
v -1.911827 -0.760941 -4.144222
v 2.825994 -0.760942 -6.433456
v 2.825994 -0.760942 -6.433456
v 3.983983 -0.760941 -2.693151
v 3.983983 -0.760941 -2.693151
v -13.639567 -0.760941 1.712839
v -13.888103 -0.760941 0.923890
v -12.784788 -0.760941 1.572020
v -13.033323 -0.760941 0.783071
v -12.907463 -0.760941 3.870761
v -12.052684 -0.760941 3.729942
v -9.580215 -0.760940 7.683152
v -8.860919 -0.760940 7.200359
v -9.585059 -0.760941 6.412999
v -10.335094 -0.760940 6.818205
v -6.490161 -0.760941 4.680334
v -7.214301 -0.760941 3.892974
v -3.101709 -0.760941 1.977075
v -3.825850 -0.760941 1.189715
v -1.913830 -0.760941 1.357977
v -1.959579 -0.760941 -0.559285
v 2.691401 -0.760941 0.333492
v 2.691099 -0.760941 -0.736234
v 5.069581 -0.760941 0.022896
v 4.674619 -0.760941 -0.727307
v 7.334636 -0.760941 -1.553929
v 6.684211 -0.760941 -2.163955
v 9.324954 -0.760941 -2.921146
v 7.109998 -0.760941 -3.122327
v 8.187333 -0.760942 -7.261492
v 7.349572 -0.760942 -7.131276
v 7.084241 -0.760942 -9.796844
v 6.310231 -0.760942 -9.450856
v 6.639636 -0.760942 -8.715694
v 7.433854 -0.760942 -8.993297
v 3.574331 -0.760942 -8.299426
v 3.539862 -0.760942 -7.352245
v 2.803840 -0.760942 -7.994035
v 3.019911 -0.760942 -7.197688
v 4.472642 -0.760941 -2.619632
v 3.686166 -0.760942 -6.141963
v 5.145276 -0.760941 -2.715127
v 5.108439 -0.760942 -6.194952
v 4.673810 -0.760942 -6.185141
v 4.721608 -0.760941 -2.688574
v 4.528531 -0.760942 -7.787116
v 4.446944 -0.760942 -8.666673
v 4.902604 -0.760942 -7.951653
v 4.777104 -0.760942 -8.805625
v -11.117277 -0.760941 4.747013
v -11.932350 -0.760941 4.988054
v -11.243448 -0.760941 5.777404
v -10.456427 -0.760941 5.465558
v -8.110232 -0.760941 4.846493
v -7.404819 -0.760941 5.652580
v -9.412588 -0.760941 4.243602
v -9.094572 -0.760941 4.832094
v 1.567465 -0.760941 -2.590248
v 0.722874 -0.760941 -5.417264
v 3.238635 -0.760941 -2.661412
v 2.177308 -0.760942 -6.120022
v 0.228306 -0.760942 -6.750824
v 1.713035 -0.760942 -7.468220
v -6.736035 -0.760941 -2.205885
v -6.487500 -0.760941 -1.416936
v -7.887109 -0.760941 -1.633559
v -7.638574 -0.760941 -0.844610
v -6.107125 -0.760941 0.200390
v -7.342683 -0.760941 0.555252
v -6.207027 -0.760941 -0.224385
v -7.420396 -0.760941 0.187591
v -4.369642 -0.760941 0.023521
v -4.469543 -0.760941 -0.401255
v -5.079195 -0.760941 -0.346222
v -4.910254 -0.760941 0.078553
v -5.451767 -0.760941 -0.294903
v -5.414391 -0.760941 0.129872
v -5.821520 -0.760941 -2.636632
v -5.482271 -0.760941 -1.776599
v -5.085580 -0.760941 -1.906231
v -5.307802 -0.760941 -2.860348
v -10.669775 -0.760941 0.904222
v -10.918310 -0.760941 0.115272
v -10.243381 -0.760941 0.608499
v -10.491916 -0.760941 -0.180450
v -9.457929 -0.760941 1.225720
v -8.718950 -0.760941 0.594789
v -1.417349 -0.760941 -4.383145
v -0.891683 -0.760941 -2.485530
v -0.242599 -0.760941 -2.513170
v -0.852444 -0.760941 -4.656097
v -2.372317 -0.760942 -6.445331
v -1.701901 -0.760942 -6.553802
v -2.992002 -0.760942 -8.466104
v -2.427097 -0.760942 -8.739056
v 11.242742 -0.760942 -13.356997
v 10.482528 -0.760942 -14.996415
v -12.520317 -0.760941 -1.849526
v -13.329021 -0.760941 -3.819673
v -6.452362 -0.760941 -2.836161
v -7.239427 -0.760941 -2.421624
v -6.731025 -0.760941 -3.357531
v -7.518090 -0.760941 -2.942994
v -9.306929 -0.760941 -2.089026
v -9.585591 -0.760941 -2.610396
v -13.132357 -0.760941 -2.246848
v -13.652666 -0.760941 -3.368908
v -13.943086 -0.760941 -3.978786
v -12.956910 -0.760941 -1.580153
v -21.140882 -0.760941 1.670966
v -21.661192 -0.760941 0.548907
v -21.951611 -0.760941 -0.060971
v -20.971090 -0.760941 2.264134
v -18.765001 -0.760941 0.488378
v -18.591934 -0.760941 1.124139
v -19.285311 -0.760941 -0.633681
v -19.575729 -0.760941 -1.243559
v -22.837879 -0.760941 -1.937664
v -20.498856 -0.760941 -3.033663
v -24.413498 -2.235057 -5.732762
v -22.074474 -2.235057 -6.828760
v -12.852853 -0.760941 -2.342418
v -13.248271 -0.760941 -3.523245
vn -0.0000 1.0000 -0.0000
vn -0.1434 0.9412 -0.3060
vt 0.561506 0.000000
vt 1.000000 0.000000
vt 1.000000 1.000000
vt 0.561506 1.000000
vt 0.000000 0.000000
vt 0.000000 1.000000
vt 0.329132 0.000000
vt 0.329132 1.000000
vt 1.000000 1.000000
s 1
usemtl Material.002
f 93/1/1 2/2/1 4/3/1
f 93/1/1 4/3/1 94/4/1
f 73/3/1 74/2/1 5/2/1
f 73/3/1 5/2/1 6/3/1
f 90/3/1 89/2/1 7/2/1
f 90/3/1 7/2/1 8/3/1
f 8/3/1 7/2/1 9/2/1
f 8/3/1 9/2/1 10/3/1
f 70/3/1 69/2/1 14/2/1
f 70/3/1 14/2/1 12/3/1
f 17/5/1 18/6/1 16/6/1
f 17/5/1 16/6/1 15/5/1
f 1/5/1 3/6/1 18/6/1
f 1/5/1 18/6/1 17/5/1
f 17/5/1 15/5/1 19/5/1
f 17/5/1 19/5/1 20/5/1
f 23/5/1 24/5/1 21/5/1
f 23/5/1 21/5/1 22/5/1
f 62/5/1 61/5/1 24/5/1
f 62/5/1 24/5/1 23/5/1
f 63/5/1 64/5/1 25/5/1
f 63/5/1 25/5/1 26/5/1
f 26/5/1 25/5/1 27/5/1
f 26/5/1 27/5/1 28/5/1
f 28/5/1 27/5/1 29/5/1
f 28/5/1 29/5/1 30/5/1
f 30/5/1 29/5/1 31/5/1
f 30/5/1 31/5/1 32/5/1
f 32/5/1 31/5/1 33/5/1
f 32/5/1 33/5/1 34/5/1
f 34/5/1 33/5/1 35/5/1
f 34/5/1 35/5/1 36/5/1
f 36/5/1 35/5/1 37/5/1
f 36/5/1 37/5/1 38/5/1
f 38/5/1 37/5/1 39/5/1
f 38/5/1 39/5/1 40/5/1
f 43/5/1 44/5/1 41/5/1
f 43/5/1 41/5/1 42/5/1
f 40/5/1 39/5/1 44/5/1
f 40/5/1 44/5/1 43/5/1
f 55/5/1 56/5/1 45/5/1
f 55/5/1 45/5/1 46/5/1
f 46/5/1 45/5/1 47/5/1
f 46/5/1 47/5/1 48/5/1
f 50/5/1 11/5/1 13/5/1
f 50/5/1 13/5/1 49/5/1
f 46/5/1 48/5/1 11/5/1
f 46/5/1 11/5/1 50/5/1
f 53/5/1 54/5/1 51/5/1
f 53/5/1 51/5/1 52/5/1
f 50/5/1 49/5/1 54/5/1
f 50/5/1 54/5/1 53/5/1
f 57/5/1 58/5/1 56/5/1
f 57/5/1 56/5/1 55/5/1
f 43/5/1 42/5/1 58/5/1
f 43/5/1 58/5/1 57/5/1
f 52/5/1 57/5/1 55/5/1
f 52/5/1 55/5/1 53/5/1
f 20/5/1 19/5/1 60/5/1
f 20/5/1 60/5/1 59/5/1
f 59/5/1 60/5/1 61/5/1
f 59/5/1 61/5/1 62/5/1
f 23/5/1 22/5/1 64/5/1
f 23/5/1 64/5/1 63/5/1
f 59/5/1 62/5/1 66/5/1
f 59/5/1 66/5/1 65/5/1
f 26/5/1 65/5/1 66/5/1
f 26/5/1 66/5/1 63/5/1
f 100/3/1 99/2/1 67/2/1
f 100/3/1 67/2/1 68/3/1
f 68/3/1 67/2/1 69/2/1
f 68/3/1 69/2/1 70/3/1
f 68/3/1 70/3/1 72/3/1
f 68/3/1 72/3/1 71/3/1
f 75/3/1 76/2/1 74/2/1
f 75/3/1 74/2/1 73/3/1
f 4/3/1 2/2/1 76/2/1
f 4/3/1 76/2/1 75/3/1
f 79/2/1 80/2/1 78/2/1
f 79/2/1 78/2/1 77/2/1
f 74/2/1 76/2/1 80/2/1
f 74/2/1 80/2/1 79/2/1
f 83/2/1 84/2/1 81/2/1
f 83/2/1 81/2/1 82/2/1
f 85/2/1 86/2/1 84/2/1
f 85/2/1 84/2/1 83/2/1
f 79/2/1 77/2/1 86/2/1
f 79/2/1 86/2/1 85/2/1
f 6/3/1 5/2/1 88/2/1
f 6/3/1 88/2/1 87/3/1
f 87/3/1 88/2/1 89/2/1
f 87/3/1 89/2/1 90/3/1
f 83/2/1 89/2/1 88/2/1
f 83/2/1 88/2/1 85/2/1
f 1/5/1 91/7/1 92/8/1
f 1/5/1 92/8/1 3/6/1
f 91/7/1 93/1/1 94/4/1
f 91/7/1 94/4/1 92/8/1
f 93/1/1 91/7/1 95/7/1
f 93/1/1 95/7/1 96/1/1
f 80/2/1 96/1/1 95/7/1
f 80/2/1 95/7/1 78/2/1
f 93/1/1 96/1/1 2/2/1
f 10/3/1 9/2/1 98/2/1
f 10/3/1 98/2/1 97/3/1
f 97/3/1 98/2/1 99/2/1
f 97/3/1 99/2/1 100/3/1
f 97/3/1 100/3/1 102/3/1
f 97/3/1 102/3/1 101/3/1
f 101/3/1 102/3/1 104/3/1
f 101/3/1 104/3/1 103/3/1
f 104/3/1 102/3/1 105/3/1
f 104/3/1 105/3/1 106/3/1
f 101/3/1 103/3/1 108/3/1
f 101/3/1 108/3/1 107/3/1
f 73/3/1 6/3/1 109/3/1
f 73/3/1 109/3/1 110/3/1
f 110/3/1 109/3/1 111/3/1
f 110/3/1 111/3/1 112/3/1
f 110/3/1 112/3/1 114/3/1
f 110/3/1 114/3/1 113/3/1
f 131/3/1 132/3/1 116/3/1 115/3/1
f 125/3/1 116/3/1 117/3/1 126/3/1
f 123/3/1 119/3/1 122/3/1 124/3/1
f 123/3/1 125/3/1 120/3/1 119/3/1
f 115/3/1 116/3/1 125/3/1 123/3/1
f 115/3/1 123/3/1 124/3/1 118/3/1
f 120/3/1 125/3/1 126/3/1 121/3/1
f 121/3/1 126/3/1 128/3/1 127/9/1
f 127/9/2 128/3/2 130/3/2 129/3/2
f 107/3/1 108/3/1 132/3/1 131/3/1
